<svg width="363" height="229" viewBox="0 0 363 229" fill="none" xmlns="http://www.w3.org/2000/svg">
<path d="M56 200.221V179.794H66.3013C68.0887 179.794 69.6937 180.056 71.1163 180.582C72.5389 181.107 73.75 181.844 74.764 182.785C75.7781 183.726 76.5514 184.82 77.0986 186.053C77.6458 187.286 77.9157 188.607 77.9157 190.007C77.9157 191.408 77.6458 192.758 77.0986 193.991C76.5514 195.224 75.7781 196.311 74.764 197.245C73.75 198.178 72.5316 198.908 71.1017 199.433C69.6718 199.958 68.0741 200.221 66.3013 200.221H56ZM62.3033 196.34L61.2236 194.852H66.1553C67.0089 194.852 67.7749 194.713 68.4461 194.443C69.1173 194.173 69.6791 193.808 70.1241 193.349C70.5691 192.889 70.9047 192.378 71.1309 191.802C71.357 191.226 71.4665 190.628 71.4665 190.007C71.4665 189.387 71.357 188.789 71.1309 188.213C70.9047 187.636 70.5691 187.126 70.1095 186.666C69.6499 186.206 69.0954 185.842 68.4315 185.572C67.7677 185.302 67.0089 185.163 66.1553 185.163H61.136L62.3033 183.733V196.34Z" fill="black"/>
<path d="M92.6236 200.513C90.559 200.513 88.7788 200.163 87.2687 199.462C85.7585 198.762 84.6058 197.799 83.796 196.573C82.9862 195.348 82.585 193.954 82.585 192.4C82.585 191.197 82.8257 190.088 83.2999 189.088C83.7741 188.089 84.438 187.228 85.2843 186.52C86.1306 185.813 87.1155 185.258 88.2317 184.871C89.3479 184.485 90.5444 184.288 91.8065 184.288C93.0686 184.288 94.3088 184.485 95.4105 184.886C96.5121 185.287 97.4605 185.842 98.2703 186.564C99.0801 187.286 99.6929 188.14 100.123 189.132C100.554 190.124 100.743 191.211 100.707 192.4L100.678 193.684H86.1744L85.5032 190.62H95.9795L95.4251 191.437V190.912C95.4032 190.504 95.2427 190.146 94.929 189.847C94.6153 189.548 94.2067 189.307 93.6887 189.132C93.1707 188.957 92.5871 188.869 91.9232 188.869C91.1864 188.869 90.5152 188.986 89.9097 189.22C89.3041 189.453 88.8372 189.796 88.4943 190.256C88.1514 190.715 87.9836 191.27 87.9836 191.934C87.9836 192.634 88.1952 193.261 88.6111 193.816C89.0269 194.37 89.6543 194.815 90.4787 195.144C91.3031 195.472 92.2953 195.64 93.4407 195.64C94.4912 195.64 95.3375 195.538 95.9795 195.333C96.6215 195.129 97.1249 194.91 97.497 194.677L100.094 198.354C99.3136 198.879 98.5256 199.295 97.7158 199.608C96.906 199.922 96.0816 200.148 95.2354 200.294C94.3891 200.44 93.5209 200.513 92.6236 200.513Z" fill="black"/>
<path d="M107.302 200.221V184.609H112.788L113.138 190.241L111.504 189.978C111.774 188.906 112.248 187.943 112.919 187.089C113.59 186.236 114.386 185.55 115.312 185.047C116.239 184.543 117.224 184.288 118.274 184.288C118.836 184.288 119.383 184.339 119.908 184.448C120.434 184.558 120.901 184.696 121.309 184.871L119.675 191.35C119.361 191.116 118.902 190.919 118.289 190.766C117.676 190.613 117.049 190.533 116.407 190.533C115.859 190.533 115.392 190.613 114.991 190.766C114.59 190.919 114.262 191.138 113.999 191.423C113.736 191.707 113.539 192.014 113.415 192.357C113.291 192.7 113.226 193.072 113.226 193.48V200.221H107.302Z" fill="black"/>
<path d="M127.583 200.221V184.609H133.07L133.303 187.702L132.311 187.148C132.683 186.703 133.092 186.301 133.551 185.951C134.011 185.601 134.5 185.302 135.025 185.047C135.55 184.791 136.119 184.602 136.732 184.478C137.345 184.353 138.001 184.288 138.702 184.288C139.497 184.288 140.256 184.39 140.963 184.594C141.671 184.799 142.299 185.178 142.846 185.732C143.393 186.287 143.838 187.06 144.188 188.052L142.962 187.965L143.225 187.556C143.597 187.053 144.02 186.601 144.509 186.214C144.998 185.827 145.523 185.484 146.099 185.192C146.676 184.901 147.296 184.674 147.967 184.521C148.638 184.368 149.346 184.288 150.083 184.288C151.622 184.288 152.877 184.572 153.862 185.134C154.847 185.696 155.562 186.469 156.007 187.439C156.452 188.41 156.678 189.519 156.678 190.766V200.221H150.754V191.408C150.754 190.978 150.666 190.598 150.491 190.256C150.316 189.913 150.061 189.635 149.718 189.424C149.375 189.212 148.952 189.103 148.449 189.103C147.945 189.103 147.515 189.176 147.106 189.322C146.698 189.468 146.34 189.665 146.041 189.92C145.742 190.175 145.509 190.467 145.341 190.81C145.173 191.153 145.093 191.525 145.093 191.934V200.221H139.169V191.408C139.169 190.978 139.074 190.584 138.877 190.226C138.68 189.869 138.388 189.592 137.987 189.395C137.586 189.198 137.068 189.103 136.426 189.103C135.995 189.103 135.601 189.183 135.229 189.351C134.857 189.519 134.551 189.723 134.295 189.978C134.04 190.234 133.85 190.504 133.712 190.795C133.573 191.087 133.507 191.35 133.507 191.583V200.221H127.583Z" fill="black"/>
<path d="M170.802 200.484C169.204 200.484 167.811 200.141 166.615 199.448C165.418 198.755 164.492 197.806 163.828 196.603C163.164 195.399 162.835 194.005 162.835 192.43C162.835 190.854 163.164 189.424 163.828 188.198C164.492 186.973 165.411 186.017 166.6 185.324C167.789 184.631 169.197 184.288 170.831 184.288C171.729 184.288 172.546 184.397 173.283 184.609C174.019 184.82 174.676 185.105 175.252 185.455C175.829 185.805 176.31 186.199 176.712 186.637C177.113 187.075 177.39 187.498 177.543 187.906L176.23 188.052V184.609H182.037V200.221H176.084V196.077L177.339 196.428C177.222 196.953 176.974 197.456 176.595 197.945C176.215 198.434 175.741 198.864 175.179 199.244C174.618 199.623 173.961 199.922 173.224 200.148C172.487 200.374 171.678 200.484 170.802 200.484ZM172.436 195.669C173.253 195.669 173.947 195.538 174.508 195.275C175.07 195.012 175.5 194.64 175.792 194.151C176.084 193.663 176.23 193.094 176.23 192.43C176.23 191.729 176.084 191.138 175.792 190.65C175.5 190.161 175.07 189.789 174.508 189.526C173.947 189.263 173.253 189.132 172.436 189.132C171.619 189.132 170.955 189.263 170.394 189.526C169.832 189.789 169.394 190.161 169.095 190.65C168.796 191.138 168.643 191.729 168.643 192.43C168.643 193.094 168.796 193.663 169.095 194.151C169.394 194.64 169.832 195.012 170.394 195.275C170.955 195.538 171.641 195.669 172.436 195.669Z" fill="black"/>
<path d="M189.887 200.221V179.794H196.191V200.221H189.887ZM194.06 195.027L192.017 190.328L204.186 179.794H211.628L194.06 195.027ZM204.828 200.221L196.803 190.212L200.655 186.418L212.124 200.221H204.828Z" fill="black"/>
<path d="M217.376 200.221V184.609H222.863L223.155 188.403L221.754 188.811C221.965 187.972 222.381 187.213 222.994 186.535C223.607 185.856 224.387 185.309 225.343 184.901C226.299 184.492 227.357 184.288 228.524 184.288C229.888 184.288 231.041 184.565 231.997 185.12C232.952 185.674 233.682 186.44 234.185 187.425C234.689 188.41 234.944 189.541 234.944 190.825V200.221H229.02V191.875C229.02 191.313 228.911 190.817 228.685 190.401C228.458 189.986 228.137 189.657 227.721 189.424C227.306 189.19 226.81 189.074 226.248 189.074C225.759 189.074 225.336 189.154 224.964 189.322C224.592 189.49 224.285 189.708 224.03 189.978C223.775 190.248 223.592 190.54 223.476 190.854C223.359 191.168 223.3 191.474 223.3 191.788V200.221H217.376Z" fill="black"/>
<path d="M246.238 181.603C245.187 181.603 244.363 181.362 243.772 180.873C243.181 180.385 242.882 179.699 242.882 178.801C242.882 177.984 243.181 177.313 243.772 176.788C244.363 176.263 245.187 176 246.238 176C247.288 176 248.113 176.241 248.704 176.73C249.295 177.218 249.594 177.904 249.594 178.801C249.594 179.619 249.295 180.29 248.689 180.815C248.084 181.34 247.266 181.603 246.238 181.603ZM243.261 200.221V184.609H249.185V200.221H243.261Z" fill="black"/>
<path d="M266.257 206.933C264.469 206.933 262.835 206.729 261.369 206.32C259.902 205.912 258.698 205.416 257.765 204.832L259.749 200.776C260.194 200.987 260.683 201.206 261.208 201.418C261.733 201.629 262.324 201.804 262.974 201.943C263.623 202.082 264.367 202.147 265.206 202.147C266.14 202.147 266.935 201.994 267.584 201.68C268.234 201.367 268.73 200.914 269.058 200.309C269.386 199.703 269.554 198.93 269.554 197.974V196.282L270.867 196.398C270.692 197.04 270.276 197.617 269.627 198.135C268.978 198.653 268.161 199.054 267.176 199.346C266.191 199.638 265.118 199.783 263.951 199.783C262.412 199.783 261.055 199.477 259.866 198.864C258.676 198.251 257.757 197.383 257.108 196.252C256.459 195.122 256.13 193.801 256.13 192.284C256.13 190.686 256.473 189.293 257.152 188.096C257.83 186.9 258.771 185.966 259.968 185.295C261.164 184.623 262.55 184.288 264.126 184.288C264.63 184.288 265.184 184.332 265.775 184.419C266.366 184.507 266.957 184.645 267.541 184.842C268.124 185.039 268.657 185.273 269.146 185.557C269.634 185.842 270.036 186.17 270.357 186.549C270.678 186.929 270.86 187.345 270.896 187.79L269.7 188.052L270.021 184.609H275.507V198.062C275.507 199.521 275.274 200.805 274.807 201.914C274.34 203.023 273.683 203.949 272.837 204.701C271.991 205.452 271.006 206.007 269.875 206.379C268.744 206.751 267.541 206.933 266.257 206.933ZM265.936 195.552C266.716 195.552 267.387 195.428 267.949 195.173C268.511 194.917 268.949 194.553 269.248 194.064C269.547 193.575 269.7 193.006 269.7 192.342C269.7 191.678 269.554 191.08 269.262 190.606C268.97 190.132 268.54 189.759 267.978 189.497C267.417 189.234 266.731 189.103 265.936 189.103C265.097 189.103 264.382 189.234 263.791 189.497C263.2 189.759 262.74 190.132 262.419 190.606C262.098 191.08 261.938 191.664 261.938 192.342C261.938 193.021 262.098 193.575 262.419 194.064C262.74 194.553 263.2 194.917 263.791 195.173C264.382 195.428 265.097 195.552 265.936 195.552Z" fill="black"/>
<path d="M283.678 200.221V178.626H289.456V188.402L287.997 188.957C288.194 188.06 288.61 187.272 289.252 186.579C289.894 185.886 290.697 185.331 291.66 184.915C292.623 184.499 293.666 184.288 294.797 184.288C296.197 184.288 297.372 184.572 298.328 185.134C299.283 185.696 300.006 186.469 300.502 187.439C300.998 188.41 301.246 189.519 301.246 190.766V200.221H295.322V191.963C295.322 191.357 295.212 190.846 294.986 190.416C294.76 189.986 294.446 189.665 294.038 189.438C293.629 189.212 293.133 189.096 292.55 189.074C292.119 189.074 291.725 189.147 291.353 189.293C290.981 189.438 290.667 189.643 290.405 189.905C290.142 190.168 289.945 190.467 289.806 190.81C289.668 191.153 289.602 191.547 289.602 191.992V200.221H283.678Z" fill="black"/>
<path d="M307.141 189.57V184.609H320.36V189.57H307.141ZM310.555 200.221V180.173H316.479V200.221H310.555Z" fill="black"/>
<path d="M299.47 53.4C298.88 41.04 295.07 57.24 295.07 57.24C295.07 57.24 297.16 31.7 290.97 55.98C290.97 55.98 288.51 32.69 287.16 55.98C287.16 55.98 285.4 66.12 283.35 57.24C281.3 48.36 278.37 45.8 280.13 60.12C281.89 74.44 229.44 92.02 229.44 92.02L185.79 94.48L137.59 91.76C137.59 91.76 85.1398 74.18 86.8998 59.86C88.6598 45.54 85.7298 48.1 83.6798 56.98C81.6298 65.86 79.8698 55.72 79.8698 55.72C78.5298 32.43 76.0598 55.72 76.0598 55.72C69.8698 31.44 71.9598 56.98 71.9598 56.98C71.9598 56.98 68.1498 40.77 67.5598 53.14C66.9698 65.5 76.7498 74.9499 76.7498 74.9499C124.7 116.79 118.32 165.33 118.32 165.33L176.77 164.22L248.71 165.59C248.71 165.59 242.33 117.05 290.28 75.21C290.28 75.21 300.05 65.76 299.47 53.4Z" fill="#644E57"/>
<path d="M183.74 21.4499C183.32 21.5099 182.91 21.6099 182.52 21.7699C179.93 22.7799 166.71 26.3799 145.6 5.71988C123.34 -16.0601 123.16 30.5999 131.19 42.4199C131.99 43.5999 131.94 45.1499 131.05 46.2599C125.24 53.4999 107.67 78.0299 124.48 91.2199C144.35 106.81 165.72 105.05 174.27 113.35C182.82 121.65 200.17 113.35 200.17 113.35C200.17 113.35 215.93 106.98 227.58 106.81C240.73 106.63 267.38 75.8999 239.24 51.9099C238.28 51.0899 238.3 49.6099 239.29 48.8199C242.88 45.9499 249.82 37.9499 250.94 18.5399C252.46 -7.60012 225.11 -2.69012 207.73 19.3799C207.31 19.9099 206.78 20.3499 206.17 20.6399C203.88 21.7399 197.68 23.7399 186.34 21.0499L183.74 21.4399V21.4499Z" fill="#644E57"/>
<path d="M215.64 25.5398C215.4 25.2298 228.88 45.6198 233.5 45.5298C237.92 45.4398 256.43 7.90981 240.54 7.42981C226.02 6.98981 217.32 29.1598 215.64 25.5398Z" fill="#81646F"/>
<path d="M156.63 26.88C156.87 26.62 142.94 43.69 139.05 43.07C135.33 42.48 124.4 6.06 137.87 7.46C150.19 8.74 154.75 29.99 156.62 26.88H156.63Z" fill="#81646F"/>
<path d="M254.11 75.5299C256.16 75.9199 257.87 72.0899 258.49 70.6599C257.2 71.6699 250.78 70.1799 252.85 69.9099C255.1 69.6099 258.7 64.8799 258.7 64.8799L253.57 66.5899C254.13 65.8199 254.49 65.2499 254.49 65.2499L253.2 65.7599L254.65 64.3599L250.52 64.5099C250.52 64.5099 255.19 56.2599 252.58 59.8599C251.68 61.1099 249.8 62.1599 247.71 62.9999C248.84 60.5399 250.49 56.7999 248.78 59.6399C246.35 63.6599 236.37 65.8399 236.04 65.8399C235.71 65.8399 223.47 64.8299 218.19 61.7299C212.91 58.6299 211.9 61.3899 208.47 60.5599C205.03 59.7199 201.6 56.6999 199.92 58.5199C198.24 60.3399 196.9 51.4199 196.9 51.4199C192.21 58.6299 193.65 73.1299 193.65 73.1299L193.76 74.7699C193.71 80.1799 201.52 87.2199 206.05 94.3699C210.58 101.52 208.86 101.72 204.38 107.95C199.9 114.17 192.55 117.05 192.55 117.05C199.34 115.86 208.66 111.13 216.79 109.18C225.64 107.06 221.15 107.42 227.6 106.82C234.66 106.16 234.63 105.08 238.71 103.1C240.43 102.27 242.3 99.8799 243.88 97.3999C247.61 94.2599 251.28 87.6299 251.39 87.4099C251.41 87.3999 251.42 87.3899 251.43 87.3699C251.92 87.0399 257.58 83.2799 256.46 83.8499C255.29 84.4499 249.98 81.8999 252.77 82.3499C255.56 82.7999 258.08 75.9799 257.18 77.8499C256.28 79.7199 251.33 74.9999 254.12 75.5299H254.11Z" fill="#B39EA6"/>
<path d="M119.18 58.5198C119.18 58.5198 119.41 58.5298 119.77 58.5298C119.42 58.5198 119.18 58.5198 119.18 58.5198Z" fill="#B39EA6"/>
<path d="M179.62 57.6998L174.68 52.4198C174.68 52.4198 174.6 55.1898 174.68 56.6998C174.76 58.2098 167.89 57.4498 158.25 59.2098C148.61 60.9698 140.73 57.8698 140.73 57.8698L132.93 53.5098C125.13 49.1498 122.2 53.5098 122.2 53.5098C122.2 53.5098 123.5 53.9098 124.25 54.7998C120.87 54.6998 119.5 56.4798 119.5 56.4798C119.5 56.4798 121.61 57.0398 122 58.3398C121.16 58.4898 120.32 58.5198 119.78 58.5298C120.39 58.5498 121.34 58.6298 122.07 58.8698C122.07 58.9698 122.05 59.0798 122.02 59.1898C121.62 60.6898 118.42 60.8498 117.08 60.8598C117.95 60.8898 119.54 61.0198 120.13 61.5098C118.29 62.0398 116.26 62.3698 116.26 62.3698C116.26 62.3698 117.81 62.5298 119.39 62.8098C117.52 63.6398 113.55 64.1998 113.55 64.1998C113.55 64.1998 118.76 64.6598 119.82 65.4098C117.34 66.1398 114.16 66.7698 114.16 66.7698C114.16 66.7698 115.65 66.7198 117.41 66.7698C114.89 67.4298 111.45 68.0298 111.45 68.0298C111.45 68.0298 117.8 67.8498 119.76 68.5598C116.77 68.7598 112.81 68.6998 112.81 68.6998C112.81 68.6998 114.59 69.1098 115.76 69.6398C113.04 69.7398 110.1 69.6998 110.1 69.6998C110.1 69.6998 113.01 70.2898 113.85 70.9298C111.98 70.7298 110.15 70.4198 111.49 71.6798C109.42 71.5098 107.15 71.0998 109.01 72.4798C111.78 74.5198 114.46 83.6398 116.78 85.6998C117.8 86.6098 119.63 88.2598 122.17 90.0998C122.23 90.0298 122.28 89.9598 122.34 89.8898C125.61 92.9398 130.91 97.2098 137.89 99.8598C147.55 103.53 170.82 110.93 170.82 110.93L163.68 100.19L159.83 87.3898L178.34 75.3198C178.34 75.3198 178.02 70.7098 178.94 67.3598C179.86 64.0098 179.61 57.7198 179.61 57.7198L179.62 57.6998Z" fill="#B39EA6"/>
<path d="M163.96 100.23L153.52 100.86C153.52 100.86 149.62 101.11 145.35 97.3398C141.08 93.5698 136.67 80.9898 148.12 80.3698C148.12 80.3698 155.92 69.8098 161.83 67.6698C167.74 65.5298 173.9 61.8898 178.55 72.0698C183.2 82.2498 166.48 91.8098 165.72 98.2198C165.72 98.2198 165.49 100.25 164.34 100.26L163.96 100.23Z" fill="#3C2F33"/>
<path d="M193.75 74.7699C193.71 73.7299 193.64 72.6899 194.02 71.7199C195.21 68.6699 198.06 61.9899 200 62.3799C202.51 62.8799 224.6 72.9799 230.89 86.3499C230.89 86.3499 234.79 90.2499 226.2 96.3699C217.61 102.49 216.9 103.29 208.93 99.7199C208.93 99.7199 206.12 94.9799 204.82 93.1399C203.52 91.2999 198.57 84.7599 196.61 82.6999C195.21 81.2399 193.87 77.4699 193.75 74.7599V74.7699Z" fill="#3C2F33"/>
<path d="M179.63 89.28C179.63 89.28 183.82 92.81 180.3 96.28C176.78 99.76 171.46 112.58 186.67 112.21C186.67 112.21 204.32 112.88 196.6 99.13C196.6 99.13 191.19 94.51 193.37 89.28C195.55 84.05 195.86 79.84 198.49 84.9C198.49 84.9 212.44 99.6 207.99 103.33C207.99 103.33 202.86 117.31 188.54 117.62C174.08 117.94 169.26 110.75 165.28 102.62C165.28 102.62 162.81 98.28 172.16 88.88C172.16 88.88 175.05 87.3 176.01 84.17C176.97 81.04 178.44 81.04 178.73 87.07L179.61 89.29L179.63 89.28Z" fill="#F3F0F2"/>
<path d="M174.8 77.8498C174.8 77.8498 170.02 64.8998 162.79 72.9498C162.79 72.9498 159.77 84.8598 174.39 78.4198L174.8 77.8498Z" fill="#171511"/>
<path d="M165.13 72.33C165.13 72.33 169.14 68.83 170.62 73.76Z" fill="#E3E2DE"/>
<path d="M197.76 77.72C197.76 77.72 202.44 64.77 209.52 72.82C209.52 72.82 212.47 84.73 198.16 78.29L197.76 77.72Z" fill="#171511"/>
<path d="M207.23 72.1999C207.23 72.1999 203.31 68.6999 201.85 73.6299Z" fill="#E3E2DE"/>
<path d="M176.89 103.55C176.89 103.55 175.08 111.42 182.99 111.95C190.9 112.48 195.48 112.33 197.41 108.87C199.34 105.41 198.03 102.77 198.03 102.77C198.03 102.77 197.94 99.5798 195.48 100.91C193.02 102.24 182.99 103.58 180.72 102.11C179.52 101.33 178.83 100.86 178.21 101.33C177.32 102.01 176.88 103.55 176.88 103.55H176.89Z" fill="#3C2F33"/>
<path d="M178.58 103.03C178.58 103.03 181.73 108.29 183.76 106.1C185.79 103.91 180.1 103.51 179.18 103.03C178.26 102.55 178.58 103.03 178.58 103.03Z" fill="#050301"/>
<path d="M196.53 102.95C196.53 102.95 193.94 108.21 192.27 106.02C190.6 103.83 195.29 103.43 196.04 102.95C196.79 102.47 196.53 102.95 196.53 102.95Z" fill="#050301"/>
<path d="M251.51 161.64H115.51C112.61 161.64 110.26 163.99 110.26 166.89V166.9C110.26 169.799 112.61 172.15 115.51 172.15H251.51C254.409 172.15 256.76 169.799 256.76 166.9V166.89C256.76 163.99 254.409 161.64 251.51 161.64Z" fill="#B39EA6"/>
</svg>
