<svg width="184" height="19" viewBox="0 0 184 19" fill="none" xmlns="http://www.w3.org/2000/svg">
<path d="M22 14.8426V2.32471H28.3126C29.4079 2.32471 30.3915 2.48565 31.2633 2.80754C32.1351 3.12943 32.8772 3.58097 33.4986 4.15769C34.12 4.73441 34.5939 5.40501 34.9292 6.16056C35.2645 6.91611 35.43 7.7253 35.43 8.58368C35.43 9.44205 35.2645 10.2691 34.9292 11.0247C34.5939 11.7802 34.12 12.4464 33.4986 13.0186C32.8772 13.5909 32.1306 14.0379 31.2543 14.3598C30.3781 14.6817 29.399 14.8426 28.3126 14.8426H22ZM25.8627 12.4642L25.201 11.5522H28.2232C28.7463 11.5522 29.2157 11.4673 29.627 11.3019C30.0383 11.1364 30.3825 10.9129 30.6553 10.6313C30.928 10.3496 31.1336 10.0367 31.2722 9.68347C31.4108 9.33028 31.4779 8.96369 31.4779 8.58368C31.4779 8.20367 31.4108 7.83707 31.2722 7.48388C31.1336 7.1307 30.928 6.81775 30.6463 6.5361C30.3647 6.25444 30.0249 6.03091 29.6181 5.86549C29.2112 5.70008 28.7463 5.61514 28.2232 5.61514H25.1474L25.8627 4.73888V12.4642Z" fill="black"/>
<path d="M44.4429 15.0215C43.1777 15.0215 42.0869 14.807 41.1614 14.3778C40.236 13.9486 39.5296 13.3585 39.0334 12.6074C38.5371 11.8563 38.2913 11.0024 38.2913 10.0501C38.2913 9.31248 38.4388 8.63294 38.7294 8.02045C39.02 7.40797 39.4268 6.88042 39.9454 6.44677C40.464 6.01311 41.0676 5.67334 41.7516 5.43639C42.4356 5.19945 43.1688 5.07874 43.9422 5.07874C44.7156 5.07874 45.4757 5.19944 46.1507 5.44533C46.8258 5.69122 47.407 6.03099 47.9032 6.47359C48.3995 6.91619 48.775 7.43926 49.0388 8.04727C49.3026 8.65529 49.4188 9.32142 49.3965 10.0501L49.3786 10.837H40.4908L40.0795 8.95929H46.4995L46.1597 9.46001V9.13812C46.1463 8.88777 46.0479 8.6687 45.8557 8.4854C45.6634 8.3021 45.4131 8.15457 45.0957 8.04727C44.7782 7.93998 44.4206 7.88633 44.0137 7.88633C43.5622 7.88633 43.1509 7.95786 42.7798 8.10092C42.4088 8.24398 42.1226 8.4541 41.9125 8.73576C41.7024 9.01741 41.5996 9.35719 41.5996 9.76402C41.5996 10.1932 41.7292 10.5777 41.9841 10.9175C42.2389 11.2572 42.6234 11.5299 43.1285 11.7311C43.6337 11.9323 44.2418 12.0351 44.9437 12.0351C45.5874 12.0351 46.106 11.9725 46.4995 11.8474C46.8929 11.7222 47.2014 11.5881 47.4294 11.445L49.0209 13.6982C48.5426 14.0201 48.0597 14.2749 47.5635 14.4672C47.0672 14.6594 46.562 14.798 46.0434 14.8874C45.5248 14.9768 44.9928 15.0215 44.4429 15.0215Z" fill="black"/>
<path d="M53.438 14.8427V5.27545H56.7999L57.0145 8.72682L56.0131 8.56588C56.1785 7.90868 56.4691 7.31855 56.8804 6.79548C57.2917 6.27241 57.779 5.85216 58.3468 5.54368C58.9146 5.23521 59.5181 5.07874 60.1619 5.07874C60.5062 5.07874 60.8415 5.11003 61.1633 5.17709C61.4852 5.24415 61.7714 5.3291 62.0217 5.43639L61.0203 9.40636C60.828 9.2633 60.5464 9.14259 60.1708 9.04871C59.7953 8.95482 59.4108 8.90565 59.0174 8.90565C58.6821 8.90565 58.396 8.95482 58.1501 9.04871C57.9042 9.14259 57.703 9.27671 57.5421 9.45107C57.3811 9.62543 57.2604 9.8132 57.1844 10.0233C57.1084 10.2334 57.0682 10.4614 57.0682 10.7118V14.8427H53.438Z" fill="black"/>
<path d="M65.8665 14.8427V5.27545H69.2284L69.3715 7.17102L68.7635 6.83125C68.9915 6.55853 69.2418 6.31265 69.5235 6.09805C69.8051 5.88346 70.1047 5.70016 70.4266 5.54368C70.7485 5.38721 71.0972 5.27097 71.4727 5.19497C71.8482 5.11897 72.2506 5.07874 72.6798 5.07874C73.1671 5.07874 73.632 5.14132 74.0657 5.2665C74.4994 5.39168 74.8838 5.62416 75.2191 5.96393C75.5544 6.3037 75.8272 6.7776 76.0417 7.38561L75.2907 7.33196L75.4516 7.0816C75.6796 6.77313 75.9389 6.49594 76.2385 6.259C76.538 6.02205 76.8599 5.81192 77.2131 5.6331C77.5663 5.45427 77.9463 5.31568 78.3576 5.22179C78.7689 5.12791 79.2025 5.07874 79.6541 5.07874C80.5974 5.07874 81.3663 5.25309 81.9699 5.59734C82.5734 5.94158 83.0116 6.41547 83.2843 7.01007C83.557 7.60467 83.6956 8.28422 83.6956 9.04871V14.8427H80.0654V9.44213C80.0654 9.17836 80.0117 8.94588 79.9044 8.73576C79.7971 8.52564 79.6407 8.35575 79.4305 8.2261C79.2204 8.09645 78.9611 8.02939 78.6526 8.02939C78.3442 8.02939 78.0804 8.0741 77.83 8.16351C77.5797 8.25292 77.3606 8.37364 77.1773 8.53011C76.994 8.68658 76.8509 8.86541 76.7481 9.07554C76.6453 9.28566 76.5961 9.51366 76.5961 9.76402V14.8427H72.9659V9.44213C72.9659 9.17836 72.9078 8.93694 72.7871 8.71788C72.6664 8.49881 72.4875 8.32893 72.2417 8.20822C71.9958 8.08751 71.6784 8.02939 71.2849 8.02939C71.0212 8.02939 70.7797 8.07857 70.5517 8.1814C70.3237 8.28422 70.136 8.4094 69.9795 8.56588C69.823 8.72235 69.7068 8.88776 69.6218 9.06659C69.5369 9.24542 69.4967 9.40637 69.4967 9.54943V14.8427H65.8665Z" fill="black"/>
<path d="M92.3507 15.0037C91.3717 15.0037 90.5178 14.7935 89.7846 14.3688C89.0514 13.9441 88.4836 13.3629 88.0768 12.6253C87.6699 11.8876 87.4688 11.0337 87.4688 10.068C87.4688 9.10236 87.6699 8.2261 88.0768 7.47503C88.4836 6.72395 89.0469 6.13829 89.7756 5.71357C90.5044 5.28886 91.3672 5.07874 92.3686 5.07874C92.9185 5.07874 93.4192 5.1458 93.8708 5.27545C94.3223 5.4051 94.7247 5.57945 95.0779 5.79404C95.4311 6.00864 95.7261 6.25006 95.972 6.5183C96.2179 6.78654 96.3878 7.04584 96.4817 7.29619L95.6769 7.38561V5.27545H99.2356V14.8427H95.5875V12.3034L96.3565 12.518C96.285 12.8399 96.133 13.1483 95.9005 13.4479C95.668 13.7474 95.3774 14.0112 95.0332 14.2437C94.6889 14.4761 94.2866 14.6594 93.835 14.798C93.3835 14.9366 92.8872 15.0037 92.3507 15.0037ZM93.3522 12.053C93.8529 12.053 94.2776 11.9725 94.6219 11.8116C94.9661 11.6507 95.2299 11.4226 95.4087 11.1231C95.5875 10.8236 95.6769 10.4749 95.6769 10.068C95.6769 9.63884 95.5875 9.27672 95.4087 8.97718C95.2299 8.67764 94.9661 8.44963 94.6219 8.28869C94.2776 8.12774 93.8529 8.04727 93.3522 8.04727C92.8515 8.04727 92.4446 8.12774 92.1004 8.28869C91.7561 8.44963 91.4879 8.67764 91.3046 8.97718C91.1213 9.27672 91.0274 9.63884 91.0274 10.068C91.0274 10.4749 91.1213 10.8236 91.3046 11.1231C91.4879 11.4226 91.7561 11.6507 92.1004 11.8116C92.4446 11.9725 92.8649 12.053 93.3522 12.053Z" fill="black"/>
<path d="M104.046 14.8426V2.32471H107.909V14.8426H104.046ZM106.603 11.6595L105.352 8.78039L112.809 2.32471H117.369L106.603 11.6595ZM113.202 14.8426L108.284 8.70886L110.645 6.3841L117.673 14.8426H113.202Z" fill="black"/>
<path d="M120.892 14.8427V5.27545H124.254L124.432 7.60021L123.574 7.85056C123.704 7.33643 123.958 6.87148 124.334 6.45571C124.71 6.03994 125.188 5.70463 125.774 5.45427C126.359 5.20391 127.008 5.07874 127.723 5.07874C128.559 5.07874 129.265 5.24862 129.851 5.58839C130.437 5.92817 130.884 6.39759 131.192 7.00113C131.501 7.60468 131.657 8.29763 131.657 9.08447V14.8427H128.027V9.72825C128.027 9.38401 127.96 9.08 127.821 8.82517C127.683 8.57034 127.486 8.36916 127.231 8.2261C126.976 8.08304 126.672 8.01151 126.328 8.01151C126.028 8.01151 125.769 8.06068 125.541 8.16351C125.313 8.26634 125.125 8.40046 124.969 8.56588C124.812 8.73129 124.701 8.91012 124.629 9.10236C124.558 9.2946 124.522 9.48237 124.522 9.67461V14.8427H120.892Z" fill="black"/>
<path d="M138.578 3.43349C137.934 3.43349 137.429 3.28596 137.067 2.98642C136.705 2.68688 136.521 2.26664 136.521 1.71674C136.521 1.21603 136.705 0.804725 137.067 0.482836C137.429 0.160946 137.934 0 138.578 0C139.222 0 139.727 0.147533 140.089 0.447069C140.451 0.746606 140.634 1.16685 140.634 1.71674C140.634 2.21746 140.451 2.62876 140.08 2.95065C139.709 3.27254 139.208 3.43349 138.578 3.43349ZM136.754 14.8427V5.27542H140.384V14.8427H136.754Z" fill="black"/>
<path d="M150.845 18.9558C149.75 18.9558 148.749 18.8306 147.85 18.5802C146.951 18.3299 146.214 18.0259 145.642 17.6682L146.858 15.1825C147.13 15.3121 147.43 15.4463 147.752 15.5759C148.074 15.7056 148.436 15.8129 148.834 15.8978C149.232 15.9828 149.688 16.023 150.202 16.023C150.774 16.023 151.261 15.9291 151.659 15.7369C152.057 15.5446 152.361 15.2674 152.562 14.8964C152.763 14.5253 152.866 14.0514 152.866 13.4658V12.4286L153.671 12.5001C153.564 12.8935 153.309 13.2467 152.911 13.5641C152.513 13.8815 152.012 14.1274 151.409 14.3062C150.805 14.4851 150.148 14.5745 149.433 14.5745C148.489 14.5745 147.658 14.3867 146.929 14.0112C146.2 13.6356 145.637 13.1036 145.239 12.4107C144.841 11.7177 144.64 10.9085 144.64 9.97861C144.64 8.99953 144.85 8.14563 145.266 7.41244C145.682 6.67924 146.259 6.10699 146.992 5.69569C147.725 5.28438 148.574 5.07874 149.54 5.07874C149.848 5.07874 150.188 5.10556 150.55 5.1592C150.913 5.21285 151.275 5.2978 151.632 5.41851C151.99 5.53921 152.316 5.68227 152.616 5.85663C152.915 6.03099 153.161 6.23217 153.358 6.46465C153.555 6.69712 153.666 6.95196 153.689 7.22467L152.956 7.38561L153.152 5.27545H156.514V13.5194C156.514 14.4135 156.371 15.2004 156.085 15.8799C155.799 16.5595 155.397 17.1272 154.878 17.5877C154.359 18.0482 153.756 18.388 153.063 18.616C152.37 18.844 151.632 18.9558 150.845 18.9558ZM150.649 11.9815C151.127 11.9815 151.538 11.9055 151.883 11.749C152.227 11.5925 152.495 11.369 152.678 11.0695C152.862 10.7699 152.956 10.4212 152.956 10.0144C152.956 9.60754 152.866 9.24095 152.687 8.95036C152.509 8.65976 152.245 8.43175 151.901 8.27081C151.556 8.10986 151.136 8.02939 150.649 8.02939C150.135 8.02939 149.696 8.10986 149.334 8.27081C148.972 8.43175 148.691 8.65976 148.494 8.95036C148.297 9.24095 148.199 9.5986 148.199 10.0144C148.199 10.4302 148.297 10.7699 148.494 11.0695C148.691 11.369 148.972 11.5925 149.334 11.749C149.696 11.9055 150.135 11.9815 150.649 11.9815Z" fill="black"/>
<path d="M161.521 14.8427V1.6095H165.062V7.60023L164.168 7.94C164.289 7.3901 164.544 6.90727 164.937 6.48256C165.331 6.05784 165.822 5.71807 166.412 5.46324C167.003 5.20841 167.642 5.07876 168.335 5.07876C169.193 5.07876 169.913 5.25312 170.499 5.59736C171.084 5.9416 171.527 6.41549 171.831 7.01009C172.135 7.6047 172.287 8.28424 172.287 9.04873V14.8427H168.657V9.78192C168.657 9.41085 168.59 9.09791 168.451 8.83414C168.312 8.57037 168.12 8.37366 167.87 8.23507C167.62 8.09647 167.316 8.02494 166.958 8.01153C166.694 8.01153 166.453 8.05624 166.225 8.14565C165.997 8.23507 165.804 8.36025 165.643 8.52119C165.483 8.68214 165.362 8.86544 165.277 9.07556C165.192 9.28568 165.152 9.5271 165.152 9.79981V14.8427H161.521Z" fill="black"/>
<path d="M175.899 8.31538V5.27531H184V8.31538H175.899ZM177.991 14.8426V2.55713H181.622V14.8426H177.991Z" fill="black"/>
<g clip-path="url(#clip0_1808_2609)">
<path d="M8.0241 3.9173C7.98004 3.92578 7.93645 3.93971 7.89475 3.96031C7.61899 4.09781 6.21221 4.58725 3.96677 1.77722C1.59861 -1.18605 1.57871 5.16149 2.43348 6.76973C2.5183 6.92964 2.51309 7.14105 2.4188 7.29188C1.80046 8.27681 -0.0687664 11.6138 1.71944 13.4074C3.83315 15.5281 6.1075 15.2888 7.01723 16.4173C7.92697 17.5464 9.77298 16.4173 9.77298 16.4173C9.77298 16.4173 11.4503 15.5505 12.6893 15.5281C14.0885 15.5027 16.9234 11.3237 13.9298 8.06116C13.8275 7.94971 13.8298 7.748 13.935 7.64078C14.3169 7.25008 15.0547 6.16278 15.175 3.52175C15.3366 -0.0345421 12.4269 0.6348 10.5775 3.63624C10.533 3.70893 10.4761 3.76768 10.4112 3.80766C10.1672 3.95667 9.50764 4.22986 8.30176 3.864L8.02458 3.9173H8.0241Z" fill="#644E57"/>
<path d="M11.4187 4.47393C11.3936 4.43214 12.8269 7.20582 13.3182 7.1931C13.7883 7.18098 15.7579 2.07581 14.0673 2.011C12.5217 1.95164 11.5968 4.9664 11.4182 4.47393H11.4187Z" fill="#81646F"/>
<path d="M5.13949 4.65686C5.16461 4.62233 3.68297 6.94353 3.26932 6.85933C2.87368 6.77877 1.71045 1.82564 3.14423 2.01584C4.45482 2.19029 4.94049 5.08027 5.13949 4.65686Z" fill="#81646F"/>
<path d="M15.5115 11.274C15.7294 11.3267 15.9114 10.8063 15.9772 10.6113C15.8403 10.7488 15.1566 10.5465 15.3774 10.5083C15.6167 10.4677 15.9995 9.82383 15.9995 9.82383L15.4532 10.0558C15.5124 9.95043 15.5508 9.8735 15.5508 9.8735L15.4139 9.94316L15.5688 9.75356L15.1291 9.77416C15.1291 9.77416 15.6261 8.65173 15.3485 9.14177C15.2523 9.31138 15.0523 9.45433 14.8306 9.56821C14.9505 9.23384 15.1263 8.72562 14.9443 9.11088C14.6856 9.65846 13.6242 9.95467 13.5887 9.95467C13.5532 9.95467 12.2506 9.81777 11.6892 9.39618C11.1272 8.97458 11.0201 9.35075 10.6543 9.23626C10.2885 9.12238 9.92275 8.71169 9.7446 8.95944C9.56644 9.20719 9.42334 7.99329 9.42334 7.99329C8.92394 8.97398 9.07698 10.9463 9.07698 10.9463L9.08835 11.1692C9.08314 11.9052 9.91375 12.8622 10.3956 13.835C10.8775 14.8085 10.6946 14.8351 10.2175 15.6813C9.74033 16.5275 8.95947 16.9189 8.95947 16.9189C9.68205 16.7571 10.6742 16.1138 11.538 15.8485C12.4795 15.5596 12.0024 15.6092 12.6884 15.5275C13.4399 15.4378 13.4366 15.29 13.8711 15.0217C14.0545 14.9084 14.2525 14.5843 14.4207 14.2469C14.8178 13.8193 15.2078 12.9173 15.2201 12.8889C15.2215 12.8871 15.2234 12.8852 15.2248 12.884C15.2774 12.8392 15.8787 12.328 15.7598 12.4061C15.6351 12.4879 15.0703 12.1408 15.3674 12.202C15.664 12.2631 15.9322 11.3345 15.8365 11.5902C15.7408 11.8458 15.2144 11.2025 15.511 11.274H15.5115Z" fill="#B39EA6"/>
<path d="M1.15527 8.96006C1.15527 8.96006 1.17944 8.96187 1.21782 8.96127C1.18039 8.95945 1.15527 8.96006 1.15527 8.96006Z" fill="#B39EA6"/>
<path d="M7.58545 8.84919L7.05951 8.13078C7.05951 8.13078 7.05051 8.50695 7.05951 8.71229C7.06851 8.91764 6.33693 8.81466 5.31158 9.05454C4.28623 9.29441 3.44757 8.87221 3.44757 8.87221L2.61791 8.27919C1.78825 7.68617 1.47647 8.27919 1.47647 8.27919C1.47647 8.27919 1.61435 8.33371 1.69443 8.45485C1.33527 8.44153 1.18886 8.68382 1.18886 8.68382C1.18886 8.68382 1.41298 8.76075 1.45515 8.93702C1.3656 8.95762 1.27605 8.96186 1.21824 8.96246C1.28268 8.96549 1.38455 8.9764 1.46178 9.0085C1.46084 9.02243 1.45941 9.03697 1.45657 9.05211C1.4144 9.25564 1.07325 9.27805 0.930629 9.27866C1.0235 9.2829 1.19265 9.29986 1.2552 9.36649C1.05951 9.43918 0.84392 9.4834 0.84392 9.4834C0.84392 9.4834 1.00881 9.5046 1.17749 9.54276C0.978485 9.65603 0.556311 9.73175 0.556311 9.73175C0.556311 9.73175 1.11068 9.79414 1.22345 9.89591C0.959533 9.99464 0.621224 10.0813 0.621224 10.0813C0.621224 10.0813 0.779954 10.0746 0.967114 10.0807C0.699405 10.1709 0.333141 10.2521 0.333141 10.2521C0.333141 10.2521 1.00834 10.2285 1.21777 10.3236C0.900305 10.3514 0.478604 10.3429 0.478604 10.3429C0.478604 10.3429 0.667659 10.3993 0.792747 10.4714C0.503243 10.4853 0.19052 10.4798 0.19052 10.4798C0.19052 10.4798 0.5004 10.5604 0.589478 10.647C0.390473 10.6204 0.195259 10.578 0.338353 10.7488C0.118026 10.7258 -0.123149 10.67 0.0744342 10.8572C0.368677 11.1353 0.654392 12.3758 0.901253 12.6557C1.01023 12.7792 1.20402 13.004 1.47505 13.2535C1.48121 13.2438 1.4869 13.2347 1.49306 13.2251C1.84131 13.6406 2.40421 14.2209 3.14764 14.5819C4.17583 15.0816 6.65155 16.0878 6.65155 16.0878L5.89154 14.6267L5.48216 12.8852L7.45183 11.2431C7.45183 11.2431 7.41724 10.6161 7.51532 10.16C7.61341 9.70389 7.58687 8.84858 7.58687 8.84858L7.58545 8.84919Z" fill="#B39EA6"/>
<path d="M5.91994 14.6334L4.8093 14.7188C4.8093 14.7188 4.39471 14.7528 3.93984 14.2397C3.48497 13.7266 3.01684 12.016 4.23408 11.9306C4.23408 11.9306 5.06374 10.4938 5.69251 10.2031C6.32127 9.9123 6.97704 9.4162 7.4717 10.8015C7.96637 12.1869 6.18717 13.4868 6.1071 14.359C6.1071 14.359 6.08199 14.6346 5.95974 14.6371L5.91947 14.6328L5.91994 14.6334Z" fill="#3C2F33"/>
<path d="M9.08892 11.1698C9.08418 11.028 9.07708 10.8875 9.11735 10.7555C9.24386 10.3411 9.54711 9.43192 9.75417 9.48462C10.0219 9.55307 12.372 10.9269 13.0406 12.7459C13.0406 12.7459 13.4552 13.2759 12.5412 14.1082C11.6272 14.9405 11.5514 15.0489 10.7037 14.5643C10.7037 14.5643 10.4047 13.9198 10.2668 13.6691C10.1285 13.4183 9.60254 12.5291 9.39264 12.2492C9.24386 12.0511 9.10077 11.5375 9.08892 11.1692V11.1698Z" fill="#3C2F33"/>
<path d="M7.58686 13.1438C7.58686 13.1438 8.03272 13.6236 7.6584 14.0967C7.28361 14.5697 6.7174 16.3143 8.33644 16.2628C8.33644 16.2628 10.2137 16.3542 9.39354 14.4843C9.39354 14.4843 8.81832 13.8556 9.05002 13.1438C9.28172 12.4321 9.31536 11.8603 9.59491 12.5478C9.59491 12.5478 11.0789 14.5467 10.606 15.0543C10.606 15.0543 10.0602 16.9557 8.53687 16.9981C6.99837 17.0412 6.4857 16.0629 6.06163 14.9574C6.06163 14.9574 5.79913 14.3662 6.79321 13.0887C6.79321 13.0887 7.10072 12.8737 7.20306 12.4472C7.30588 12.0214 7.46177 12.0214 7.49304 12.8422L7.58686 13.1438Z" fill="#F3F0F2"/>
<path d="M7.07269 11.5896C7.07269 11.5896 6.56428 9.82808 5.79527 10.9227C5.79527 10.9227 5.47402 12.543 7.02958 11.6665L7.07317 11.5896H7.07269Z" fill="#171511"/>
<path d="M6.04395 10.839C6.04395 10.839 6.47038 10.3623 6.62864 11.0328Z" fill="#E3E2DE"/>
<path d="M9.51611 11.5714C9.51611 11.5714 10.0136 9.80989 10.767 10.9045C10.767 10.9045 11.0811 12.5248 9.55876 11.6483L9.51611 11.5714Z" fill="#171511"/>
<path d="M10.5235 10.8208C10.5235 10.8208 10.1061 10.3441 9.95117 11.0146Z" fill="#E3E2DE"/>
<path d="M7.2954 15.0852C7.2954 15.0852 7.10256 16.1562 7.94454 16.2283C8.78652 16.3003 9.27408 16.2797 9.47924 15.8091C9.68441 15.339 9.54558 14.9792 9.54558 14.9792C9.54558 14.9792 9.53658 14.5461 9.27455 14.7266C9.013 14.9077 7.94596 15.0901 7.70383 14.8896C7.5759 14.7836 7.50293 14.7194 7.43707 14.7836C7.34231 14.8756 7.2954 15.0852 7.2954 15.0852Z" fill="#3C2F33"/>
<path d="M7.4755 15.0138C7.4755 15.0138 7.81049 15.7292 8.02656 15.4312C8.24262 15.1331 7.6366 15.0792 7.53899 15.0138C7.44139 14.9484 7.4755 15.0138 7.4755 15.0138Z" fill="#050301"/>
<path d="M9.38501 15.0028C9.38501 15.0028 9.10925 15.7182 8.93157 15.4202C8.75388 15.1222 9.25234 15.0683 9.33289 15.0028C9.41344 14.9374 9.38501 15.0028 9.38501 15.0028Z" fill="#050301"/>
</g>
<defs>
<clipPath id="clip0_1808_2609">
<rect width="16" height="16" fill="white" transform="translate(0 1)"/>
</clipPath>
</defs>
</svg>
