<svg width="256" height="192" viewBox="0 0 256 192" fill="none" xmlns="http://www.w3.org/2000/svg">
<g clip-path="url(#clip0_1984_2810)">
<path d="M255.971 61.9207C255.322 47.5868 251.12 66.3768 251.12 66.3768C251.12 66.3768 253.425 36.7589 246.593 64.9155C246.593 64.9155 243.876 37.9104 242.391 64.9155C242.391 64.9155 240.45 76.6729 238.189 66.3768C235.924 56.0808 232.69 53.1066 234.631 69.7124C236.572 86.3183 178.687 106.704 178.687 106.704L130.514 109.559L77.3225 106.41C77.3225 106.41 19.4375 86.024 21.3788 69.4181C23.3201 52.8123 20.0863 55.7865 17.8206 66.0825C15.555 76.3785 13.6186 64.6212 13.6186 64.6212C12.1344 37.6161 9.41654 64.6212 9.41654 64.6212C2.58516 36.4646 4.89013 66.0825 4.89013 66.0825C4.89013 66.0825 0.688095 47.2925 0.0393596 61.6264C-0.609376 75.9603 10.1783 86.9173 10.1783 86.9173C63.0994 135.428 56.0616 191.711 56.0616 191.711L120.562 190.425L199.958 192.01C199.958 192.01 192.92 135.728 245.841 87.2168C245.841 87.2168 256.629 76.2598 255.98 61.9259L255.971 61.9207Z" fill="#644E57"/>
<path d="M126.518 24.8677C126.061 24.94 125.609 25.0587 125.176 25.2343C122.316 26.4064 107.725 30.5785 84.4339 6.62501C59.8704 -18.6349 59.664 35.4735 68.5301 49.1827C69.4098 50.5458 69.3557 52.3479 68.3777 53.6336C61.9641 62.0295 42.5757 90.4753 61.1237 105.764C83.048 123.842 106.638 121.802 116.075 131.422C125.511 141.047 144.658 131.422 144.658 131.422C144.658 131.422 162.056 124.033 174.908 123.842C189.421 123.625 218.825 88.0019 187.775 60.1913C186.713 59.2412 186.738 57.5217 187.829 56.6078C191.79 53.2773 199.442 44.0088 200.69 21.4959C202.366 -8.81906 172.185 -3.11338 153.003 22.4718C152.541 23.0914 151.952 23.5923 151.278 23.9331C148.747 25.2033 141.906 27.5321 129.398 24.4133L126.523 24.8677H126.518Z" fill="#644E57"/>
<path d="M161.722 29.6131C161.461 29.2568 176.328 52.9005 181.425 52.7921C186.3 52.6888 206.73 9.17072 189.195 8.61822C173.163 8.1122 163.57 33.811 161.717 29.6131H161.722Z" fill="#81646F"/>
<path d="M96.5978 31.1722C96.8582 30.8779 81.4901 50.6645 77.1996 49.9467C73.0958 49.26 61.0303 7.03795 75.9021 8.65929C89.4961 10.1464 94.5336 34.7815 96.5978 31.1722Z" fill="#81646F"/>
<path d="M204.18 87.5784C206.44 88.0276 208.328 83.5921 209.011 81.9295C207.59 83.1016 200.499 81.377 202.789 81.0517C205.271 80.7057 209.242 75.2169 209.242 75.2169L203.575 77.1946C204.19 76.2961 204.588 75.6403 204.588 75.6403L203.167 76.2341L204.774 74.618L200.214 74.7935C200.214 74.7935 205.369 65.2255 202.489 69.4028C201.491 70.8486 199.417 72.0672 197.117 73.0379C198.361 70.1877 200.184 65.8555 198.297 69.1395C195.613 73.8073 184.605 76.3322 184.236 76.3322C183.867 76.3322 170.357 75.1653 164.533 71.5715C158.704 67.9777 157.594 71.1842 153.799 70.2083C150.005 69.2376 146.211 65.7367 144.363 67.8486C142.515 69.9605 141.031 59.6128 141.031 59.6128C135.851 67.9725 137.439 84.7849 137.439 84.7849L137.557 86.6851C137.502 92.9588 146.118 101.117 151.116 109.41C156.114 117.707 154.217 117.935 149.268 125.148C144.319 132.362 136.22 135.697 136.22 135.697C143.715 134.318 154.006 128.835 162.965 126.573C172.731 124.11 167.782 124.534 174.898 123.837C182.693 123.072 182.658 121.812 187.165 119.525C189.067 118.559 191.121 115.797 192.866 112.921C196.985 109.275 201.029 101.587 201.157 101.344C201.172 101.329 201.192 101.313 201.206 101.303C201.752 100.921 207.989 96.5629 206.755 97.229C205.462 97.9261 199.604 94.9674 202.686 95.4889C205.762 96.0104 208.544 88.0947 207.551 90.2737C206.558 92.4527 201.098 86.9691 204.175 87.5784H204.18Z" fill="#B39EA6"/>
<path d="M55.2654 67.8539C55.2654 67.8539 55.516 67.8693 55.9141 67.8642C55.5259 67.8487 55.2654 67.8539 55.2654 67.8539Z" fill="#B39EA6"/>
<path d="M121.967 66.9088L116.512 60.7849C116.512 60.7849 116.419 63.9914 116.512 65.7418C116.605 67.4923 109.017 66.6145 98.3817 68.6592C87.7464 70.704 79.0474 67.105 79.0474 67.105L70.4419 62.0499C61.8363 56.9948 58.6024 62.0499 58.6024 62.0499C58.6024 62.0499 60.0326 62.5146 60.8632 63.5473C57.1379 63.4337 55.6192 65.4992 55.6192 65.4992C55.6192 65.4992 57.9439 66.1549 58.3813 67.6575C57.4524 67.8331 56.5235 67.8692 55.9239 67.8744C56.5923 67.9002 57.649 67.9931 58.4501 68.2668C58.4402 68.3856 58.4255 68.5095 58.396 68.6386C57.9586 70.3735 54.4201 70.5646 52.9407 70.5697C53.904 70.6059 55.6585 70.7504 56.3073 71.3184C54.2775 71.938 52.0414 72.315 52.0414 72.315C52.0414 72.315 53.7517 72.4957 55.5013 72.821C53.4371 73.7866 49.0582 74.432 49.0582 74.432C49.0582 74.432 54.8083 74.9639 55.978 75.8313C53.2405 76.673 49.7315 77.4114 49.7315 77.4114C49.7315 77.4114 51.3779 77.3546 53.3192 77.4062C50.5424 78.1756 46.7433 78.8675 46.7433 78.8675C46.7433 78.8675 53.7467 78.6661 55.919 79.4768C52.6262 79.7143 48.2521 79.642 48.2521 79.642C48.2521 79.642 50.2131 80.1222 51.5106 80.7367C48.5077 80.8554 45.264 80.809 45.264 80.809C45.264 80.809 48.4782 81.4957 49.4022 82.2341C47.338 82.0069 45.3132 81.6455 46.7974 83.1016C44.5121 82.9054 42.0105 82.4303 44.0599 84.0258C47.1119 86.3959 50.0755 96.9708 52.636 99.3563C53.7664 100.41 55.7765 102.325 58.5877 104.453C58.6516 104.37 58.7106 104.293 58.7744 104.21C62.3867 107.752 68.2253 112.699 75.9365 115.776C86.6013 120.036 112.28 128.613 112.28 128.613L104.397 116.158L100.151 101.313L120.581 87.315C120.581 87.315 120.223 81.9708 121.24 78.0826C122.257 74.1945 121.982 66.9036 121.982 66.9036L121.967 66.9088Z" fill="#B39EA6"/>
<path d="M104.687 116.215L93.1672 116.943C93.1672 116.943 88.8669 117.232 84.1488 112.859C79.4307 108.485 74.575 93.9037 87.2008 93.1756C87.2008 93.1756 95.8064 80.9278 102.328 78.4493C108.85 75.9708 115.652 71.7419 120.783 83.5508C125.914 95.3598 107.459 106.441 106.628 113.876C106.628 113.876 106.368 116.226 105.1 116.246L104.682 116.21L104.687 116.215Z" fill="#3C2F33"/>
<path d="M137.562 86.6902C137.512 85.482 137.439 84.2841 137.856 83.1584C139.169 79.6266 142.314 71.8761 144.462 72.3254C147.238 72.9088 171.615 84.6197 178.55 100.126C178.55 100.126 182.85 104.644 173.37 111.738C163.889 118.833 163.103 119.757 154.311 115.627C154.311 115.627 151.21 110.133 149.779 107.995C148.349 105.857 142.889 98.2772 140.712 95.8916C139.169 94.2032 137.684 89.8245 137.562 86.6851V86.6902Z" fill="#3C2F33"/>
<path d="M121.977 103.518C121.977 103.518 126.602 107.608 122.719 111.641C118.837 115.673 112.959 130.544 129.752 130.105C129.752 130.105 149.224 130.885 140.717 114.945C140.717 114.945 134.75 109.586 137.154 103.518C139.557 97.4513 139.906 92.5769 142.805 98.4375C142.805 98.4375 158.198 115.477 153.293 119.804C153.293 119.804 147.632 136.012 131.831 136.374C115.873 136.74 110.555 128.401 106.157 118.978C106.157 118.978 103.434 113.938 113.745 103.049C113.745 103.049 116.935 101.215 117.996 97.5804C119.058 93.9453 120.68 93.9504 121.004 100.947L121.977 103.518Z" fill="#F3F0F2"/>
<path d="M116.645 90.2688C116.645 90.2688 111.371 75.2533 103.395 84.5838C103.395 84.5838 100.063 98.3962 116.197 90.9246L116.65 90.2688H116.645Z" fill="#171511"/>
<path d="M105.975 83.8714C105.975 83.8714 110.398 79.8077 112.04 85.5237Z" fill="#E3E2DE"/>
<path d="M141.995 90.114C141.995 90.114 147.155 75.0985 154.969 84.429C154.969 84.429 158.228 98.2414 142.437 90.7698L141.995 90.114Z" fill="#171511"/>
<path d="M152.443 83.7161C152.443 83.7161 148.113 79.6524 146.506 85.3684Z" fill="#E3E2DE"/>
<path d="M118.955 120.067C118.955 120.067 116.954 129.196 125.688 129.811C134.421 130.425 139.478 130.25 141.606 126.238C143.734 122.231 142.294 119.164 142.294 119.164C142.294 119.164 142.201 115.472 139.483 117.01C136.77 118.554 125.702 120.109 123.191 118.399C121.864 117.496 121.107 116.948 120.424 117.496C119.441 118.281 118.955 120.067 118.955 120.067Z" fill="#3C2F33"/>
<path d="M120.827 119.458C120.827 119.458 124.302 125.556 126.543 123.016C128.784 120.476 122.498 120.016 121.486 119.458C120.473 118.901 120.827 119.458 120.827 119.458Z" fill="#050301"/>
<path d="M140.633 119.365C140.633 119.365 137.773 125.463 135.93 122.923C134.087 120.382 139.257 119.923 140.093 119.365C140.928 118.807 140.633 119.365 140.633 119.365Z" fill="#050301"/>
<rect width="221" height="13" rx="6.5" transform="matrix(1 0 0 -1 20 192)" fill="#B39EA6"/>
</g>
<defs>
<clipPath id="clip0_1984_2810">
<rect width="256" height="192" fill="white"/>
</clipPath>
</defs>
</svg>
